<svg xmlns="http://www.w3.org/2000/svg" viewBox="0 0 1000 370"
     role="img" aria-labelledby="figure-title figure-desc" preserveAspectRatio="xMidYMid meet">
  <title id="figure-title">Composition data flow</title>
  <desc id="figure-desc">Three producers write to one shared project, which supports scene composition and three export adapters.</desc>
  <rect width="1000" height="370" fill="#FFFFFF" />
  <g stroke-linecap="round" stroke-linejoin="round"><text x="500" y="26" font-family="Segoe UI, Arial, sans-serif" font-size="13" font-weight="700" fill="#5D6B7E" text-anchor="middle">ONE PROJECT, MANY PRODUCERS</text><rect x="35" y="70" width="220" height="58" rx="10" fill="#6D28D9" stroke="#6D28D9" stroke-width="2" /><text x="145.0" y="94.82" font-family="Segoe UI, Arial, sans-serif" font-size="12" font-weight="600" fill="#FFFFFF" text-anchor="middle"><tspan x="145.0" dy="0">Character</tspan><tspan x="145.0" dy="17">generator</tspan></text><path d="M 255 99 H 292" stroke="#64748B" stroke-width="2" fill="none" /><rect x="35" y="155" width="220" height="58" rx="10" fill="#6D28D9" stroke="#6D28D9" stroke-width="2" /><text x="145.0" y="179.82" font-family="Segoe UI, Arial, sans-serif" font-size="12" font-weight="600" fill="#FFFFFF" text-anchor="middle"><tspan x="145.0" dy="0">Environment</tspan><tspan x="145.0" dy="17">generator</tspan></text><path d="M 255 184 H 292" stroke="#64748B" stroke-width="2" fill="none" /><rect x="35" y="240" width="220" height="58" rx="10" fill="#6D28D9" stroke="#6D28D9" stroke-width="2" /><text x="145.0" y="264.82" font-family="Segoe UI, Arial, sans-serif" font-size="12" font-weight="600" fill="#FFFFFF" text-anchor="middle"><tspan x="145.0" dy="0">Structures</tspan><tspan x="145.0" dy="17">generator</tspan></text><path d="M 255 269 H 292" stroke="#64748B" stroke-width="2" fill="none" /><path d="M 292 99 V 269" stroke="#64748B" stroke-width="2" fill="none" /><path d="M 292 184 H 325" fill="none" stroke="#6D28D9" stroke-width="2" stroke-linecap="round" /><polygon points="325,179 335,184 325,189" fill="#6D28D9" /><rect x="335" y="140" width="260" height="88" rx="10" fill="#FFFFFF" stroke="#DDD6FE" stroke-width="2" /><text x="465.0" y="170.04" font-family="Segoe UI, Arial, sans-serif" font-size="14" font-weight="600" fill="#1F2937" text-anchor="middle"><tspan x="465.0" dy="0">Shared project</tspan><tspan x="465.0" dy="19">assets · tokens</tspan><tspan x="465.0" dy="19">licenses · recipes</tspan></text><path d="M 595 184 H 630" fill="none" stroke="#6D28D9" stroke-width="2" stroke-linecap="round" /><polygon points="630,179 640,184 630,189" fill="#6D28D9" /><path d="M 640 99 V 269" stroke="#64748B" stroke-width="2" fill="none" /><path d="M 640 99 H 680" stroke="#64748B" stroke-width="2" fill="none" /><rect x="680" y="70" width="280" height="58" rx="10" fill="#FFFFFF" stroke="#DDD6FE" stroke-width="2" /><text x="820.0" y="94.82" font-family="Segoe UI, Arial, sans-serif" font-size="12" font-weight="600" fill="#1F2937" text-anchor="middle"><tspan x="820.0" dy="0">Files</tspan><tspan x="820.0" dy="17">PNG · JSON</tspan></text><path d="M 640 184 H 680" stroke="#64748B" stroke-width="2" fill="none" /><rect x="680" y="155" width="280" height="58" rx="10" fill="#FFFFFF" stroke="#DDD6FE" stroke-width="2" /><text x="820.0" y="179.82" font-family="Segoe UI, Arial, sans-serif" font-size="12" font-weight="600" fill="#1F2937" text-anchor="middle"><tspan x="820.0" dy="0">Live link</tspan><tspan x="820.0" dy="17">engine target</tspan></text><path d="M 640 269 H 680" stroke="#64748B" stroke-width="2" fill="none" /><rect x="680" y="240" width="280" height="58" rx="10" fill="#FFFFFF" stroke="#DDD6FE" stroke-width="2" /><text x="820.0" y="264.82" font-family="Segoe UI, Arial, sans-serif" font-size="12" font-weight="600" fill="#1F2937" text-anchor="middle"><tspan x="820.0" dy="0">CLI / API</tspan><tspan x="820.0" dy="17">automation</tspan></text><path d="M 465 228 V 265" fill="none" stroke="#6D28D9" stroke-width="2" stroke-linecap="round" /><polygon points="460,265 465,275 470,265" fill="#6D28D9" /><rect x="335" y="275" width="260" height="60" rx="10" fill="#DCFCE7" stroke="#15803D" stroke-width="2" /><text x="465.0" y="300.82" font-family="Segoe UI, Arial, sans-serif" font-size="12" font-weight="600" fill="#14532D" text-anchor="middle"><tspan x="465.0" dy="0">Scene / composition</tspan><tspan x="465.0" dy="17">optional verification context</tspan></text></g>
</svg>
