<svg xmlns="http://www.w3.org/2000/svg" viewBox="0 0 1000 280"
     role="img" aria-labelledby="figure-title figure-desc" preserveAspectRatio="xMidYMid meet">
  <title id="figure-title">MVP character-to-engine workflow</title>
  <desc id="figure-desc">Seven steps run from creating a project through composing, recoloring, previewing, saving, exporting, and using a character in a game.</desc>
  <rect width="1000" height="280" fill="#FFFFFF" />
  <g stroke-linecap="round" stroke-linejoin="round"><text x="500" y="28" font-family="Segoe UI, Arial, sans-serif" font-size="13" font-weight="700" fill="#5D6B7E" text-anchor="middle">ONE COMPLETE CHARACTER-TO-ENGINE JOURNEY</text><path d="M 111 112 H 171" fill="none" stroke="#64748B" stroke-width="3" stroke-linecap="round" /><polygon points="171,107 181,112 171,117" fill="#64748B" /><path d="M 253 112 H 313" fill="none" stroke="#64748B" stroke-width="3" stroke-linecap="round" /><polygon points="313,107 323,112 313,117" fill="#64748B" /><path d="M 395 112 H 455" fill="none" stroke="#64748B" stroke-width="3" stroke-linecap="round" /><polygon points="455,107 465,112 455,117" fill="#64748B" /><path d="M 537 112 H 597" fill="none" stroke="#64748B" stroke-width="3" stroke-linecap="round" /><polygon points="597,107 607,112 597,117" fill="#64748B" /><path d="M 679 112 H 739" fill="none" stroke="#64748B" stroke-width="3" stroke-linecap="round" /><polygon points="739,107 749,112 739,117" fill="#64748B" /><path d="M 821 112 H 881" fill="none" stroke="#64748B" stroke-width="3" stroke-linecap="round" /><polygon points="881,107 891,112 881,117" fill="#64748B" /><circle cx="75" cy="112" r="36" fill="#DDD6FE" stroke="#6D28D9" stroke-width="3" /><circle cx="75" cy="112" r="13" fill="#6D28D9" /><text x="75" y="116" font-family="Segoe UI, Arial, sans-serif" font-size="11" font-weight="700" fill="#FFFFFF" text-anchor="middle">1</text><text x="75" y="174" font-family="Segoe UI, Arial, sans-serif" font-size="13" font-weight="600" fill="#1F2937" text-anchor="middle"><tspan x="75" dy="0">Create</tspan><tspan x="75" dy="18">project</tspan></text><circle cx="217" cy="112" r="36" fill="#DDD6FE" stroke="#6D28D9" stroke-width="3" /><circle cx="217" cy="112" r="13" fill="#6D28D9" /><text x="217" y="116" font-family="Segoe UI, Arial, sans-serif" font-size="11" font-weight="700" fill="#FFFFFF" text-anchor="middle">2</text><text x="217" y="174" font-family="Segoe UI, Arial, sans-serif" font-size="13" font-weight="600" fill="#1F2937" text-anchor="middle"><tspan x="217" dy="0">Compose</tspan><tspan x="217" dy="18">from packs</tspan></text><circle cx="359" cy="112" r="36" fill="#DDD6FE" stroke="#6D28D9" stroke-width="3" /><circle cx="359" cy="112" r="13" fill="#6D28D9" /><text x="359" y="116" font-family="Segoe UI, Arial, sans-serif" font-size="11" font-weight="700" fill="#FFFFFF" text-anchor="middle">3</text><text x="359" y="174" font-family="Segoe UI, Arial, sans-serif" font-size="13" font-weight="600" fill="#1F2937" text-anchor="middle"><tspan x="359" dy="0">Apply</tspan><tspan x="359" dy="18">tokens</tspan></text><circle cx="501" cy="112" r="36" fill="#DDD6FE" stroke="#6D28D9" stroke-width="3" /><circle cx="501" cy="112" r="13" fill="#6D28D9" /><text x="501" y="116" font-family="Segoe UI, Arial, sans-serif" font-size="11" font-weight="700" fill="#FFFFFF" text-anchor="middle">4</text><text x="501" y="174" font-family="Segoe UI, Arial, sans-serif" font-size="13" font-weight="600" fill="#1F2937" text-anchor="middle"><tspan x="501" dy="0">Preview</tspan><tspan x="501" dy="18">animation</tspan></text><circle cx="643" cy="112" r="36" fill="#DDD6FE" stroke="#6D28D9" stroke-width="3" /><circle cx="643" cy="112" r="13" fill="#6D28D9" /><text x="643" y="116" font-family="Segoe UI, Arial, sans-serif" font-size="11" font-weight="700" fill="#FFFFFF" text-anchor="middle">5</text><text x="643" y="174" font-family="Segoe UI, Arial, sans-serif" font-size="13" font-weight="600" fill="#1F2937" text-anchor="middle"><tspan x="643" dy="0">Save</tspan><tspan x="643" dy="18">recipe</tspan></text><circle cx="785" cy="112" r="36" fill="#DDD6FE" stroke="#6D28D9" stroke-width="3" /><circle cx="785" cy="112" r="13" fill="#6D28D9" /><text x="785" y="116" font-family="Segoe UI, Arial, sans-serif" font-size="11" font-weight="700" fill="#FFFFFF" text-anchor="middle">6</text><text x="785" y="174" font-family="Segoe UI, Arial, sans-serif" font-size="13" font-weight="600" fill="#1F2937" text-anchor="middle"><tspan x="785" dy="0">Export</tspan><tspan x="785" dy="18">for Godot</tspan></text><circle cx="927" cy="112" r="36" fill="#DCFCE7" stroke="#15803D" stroke-width="3" /><circle cx="927" cy="112" r="13" fill="#15803D" /><text x="927" y="116" font-family="Segoe UI, Arial, sans-serif" font-size="11" font-weight="700" fill="#FFFFFF" text-anchor="middle">7</text><text x="927" y="174" font-family="Segoe UI, Arial, sans-serif" font-size="13" font-weight="600" fill="#1F2937" text-anchor="middle"><tspan x="927" dy="0">Use</tspan><tspan x="927" dy="18">in a game</tspan></text><rect x="300" y="220" width="400" height="28" rx="14" fill="#DCFCE7" stroke="#15803D" stroke-width="1" /><text x="500.0" y="239" font-family="Segoe UI, Arial, sans-serif" font-size="12" font-weight="600" fill="#14532D" text-anchor="middle">Spritesheet · animation data · exact credits</text></g>
</svg>
