<svg xmlns="http://www.w3.org/2000/svg" viewBox="0 0 1000 470"
     role="img" aria-labelledby="figure-title figure-desc" preserveAspectRatio="xMidYMid meet">
  <title id="figure-title">MVP expanding toward the North Star</title>
  <desc id="figure-desc">Concentric layers show the character MVP at the core, followed by the content ecosystem, world producers, and the complete studio.</desc>
  <rect width="1000" height="470" fill="#19151F" />
  <g stroke-linecap="round" stroke-linejoin="round"><text x="500" y="28" font-family="Segoe UI, Arial, sans-serif" font-size="13" font-weight="700" fill="#C9C1D4" text-anchor="middle">THE MVP CORE PERSISTS THROUGH EVERY EXPANSION</text><circle cx="300" cy="235" r="190" fill="#30273A" stroke="#4C3D68" stroke-width="2" /><circle cx="300" cy="235" r="145" fill="#241D2D" stroke="#C4B5FD" stroke-width="2" /><circle cx="300" cy="235" r="100" fill="#4C3D68" stroke="#A78BFA" stroke-width="2" /><circle cx="300" cy="235" r="55" fill="#A78BFA" stroke="#A78BFA" stroke-width="2" /><text x="300" y="229" font-family="Segoe UI, Arial, sans-serif" font-size="14" font-weight="700" fill="#1D1235" text-anchor="middle"><tspan x="300" dy="0">Character</tspan><tspan x="300" dy="18">MVP</tspan></text><circle cx="580" cy="90" r="7" fill="#A78BFA" /><path d="M 355.0 200.0 C 500 90 520 90 558 90" fill="none" stroke="#A78BFA" stroke-width="2" /><text x="605" y="87" font-family="Segoe UI, Arial, sans-serif" font-size="15" font-weight="700" fill="#F8F7FC" text-anchor="start">MVP core</text><text x="605" y="108" font-family="Segoe UI, Arial, sans-serif" font-size="12" font-weight="400" fill="#C9C1D4" text-anchor="start">project · packs · tokens · export</text><circle cx="580" cy="180" r="7" fill="#A78BFA" /><path d="M 400.0 221.6 C 500 180 520 180 558 180" fill="none" stroke="#A78BFA" stroke-width="2" /><text x="605" y="177" font-family="Segoe UI, Arial, sans-serif" font-size="15" font-weight="700" fill="#F8F7FC" text-anchor="start">Content ecosystem</text><text x="605" y="198" font-family="Segoe UI, Arial, sans-serif" font-size="12" font-weight="400" fill="#C9C1D4" text-anchor="start">pack authoring · richer characters</text><circle cx="580" cy="270" r="7" fill="#C4B5FD" /><path d="M 445.0 243.2 C 500 270 520 270 558 270" fill="none" stroke="#C4B5FD" stroke-width="2" /><text x="605" y="267" font-family="Segoe UI, Arial, sans-serif" font-size="15" font-weight="700" fill="#F8F7FC" text-anchor="start">World producers</text><text x="605" y="288" font-family="Segoe UI, Arial, sans-serif" font-size="12" font-weight="400" fill="#C9C1D4" text-anchor="start">terrain · structures · composition</text><circle cx="580" cy="360" r="7" fill="#4C3D68" /><path d="M 490.0 264.8 C 500 360 520 360 558 360" fill="none" stroke="#4C3D68" stroke-width="2" /><text x="605" y="357" font-family="Segoe UI, Arial, sans-serif" font-size="15" font-weight="700" fill="#F8F7FC" text-anchor="start">North Star studio</text><text x="605" y="378" font-family="Segoe UI, Arial, sans-serif" font-size="12" font-weight="400" fill="#C9C1D4" text-anchor="start">editing · maps · live links · automation</text></g>
</svg>
