<svg xmlns="http://www.w3.org/2000/svg" viewBox="0 0 1000 500"
     role="img" aria-labelledby="figure-title figure-desc" preserveAspectRatio="xMidYMid meet">
  <title id="figure-title">North Star product architecture</title>
  <desc id="figure-desc">Three specialized producers feed one project and five shared capabilities, then scene composition and a shared export pipeline.</desc>
  <rect width="1000" height="500" fill="#19151F" />
  <g stroke-linecap="round" stroke-linejoin="round"><text x="500" y="26" font-family="Segoe UI, Arial, sans-serif" font-size="13" font-weight="700" fill="#C9C1D4" text-anchor="middle">SPECIALIZED PRODUCERS, ONE SHARED STUDIO</text><rect x="50" y="48" width="270" height="62" rx="10" fill="#A78BFA" stroke="#A78BFA" stroke-width="2" /><text x="185.0" y="74.82" font-family="Segoe UI, Arial, sans-serif" font-size="12" font-weight="600" fill="#1D1235" text-anchor="middle"><tspan x="185.0" dy="0">Character generator</tspan><tspan x="185.0" dy="17">MVP starts here</tspan></text><path d="M 185 110 V 142" stroke="#A79CB5" stroke-width="2" /><rect x="365" y="48" width="270" height="62" rx="10" fill="#19151F" stroke="#4C3D68" stroke-width="2" /><text x="500.0" y="74.82" font-family="Segoe UI, Arial, sans-serif" font-size="12" font-weight="600" fill="#F8F7FC" text-anchor="middle"><tspan x="500.0" dy="0">Environment &amp; terrain</tspan><tspan x="500.0" dy="17">second producer</tspan></text><path d="M 500 110 V 142" stroke="#A79CB5" stroke-width="2" /><rect x="680" y="48" width="270" height="62" rx="10" fill="#19151F" stroke="#4C3D68" stroke-width="2" /><text x="815.0" y="74.82" font-family="Segoe UI, Arial, sans-serif" font-size="12" font-weight="600" fill="#F8F7FC" text-anchor="middle"><tspan x="815.0" dy="0">Structures &amp; props</tspan><tspan x="815.0" dy="17">world completion</tspan></text><path d="M 815 110 V 142" stroke="#A79CB5" stroke-width="2" /><path d="M 185 142 H 815" stroke="#A79CB5" stroke-width="2" fill="none" /><path d="M 500 142 V 155" fill="none" stroke="#A78BFA" stroke-width="2" stroke-linecap="round" /><polygon points="495,155 500,165 505,155" fill="#A78BFA" /><rect x="355" y="165" width="290" height="70" rx="10" fill="#19151F" stroke="#4C3D68" stroke-width="2" /><text x="500.0" y="195.54" font-family="Segoe UI, Arial, sans-serif" font-size="14" font-weight="600" fill="#F8F7FC" text-anchor="middle"><tspan x="500.0" dy="0">One versioned project</tspan><tspan x="500.0" dy="19">assets · recipes · tokens · licenses</tspan></text><path d="M 500 235 V 260" fill="none" stroke="#A78BFA" stroke-width="2" stroke-linecap="round" /><polygon points="495,260 500,270 505,260" fill="#A78BFA" /><rect x="35" y="270" width="930" height="100" rx="10" fill="#241D2D" stroke="#A79CB5" stroke-width="1" /><text x="65" y="296" font-family="Segoe UI, Arial, sans-serif" font-size="11" font-weight="700" fill="#C9C1D4" text-anchor="start">SHARED CAPABILITIES</text><rect x="65" y="316" width="158" height="28" rx="14" fill="#4C3D68" stroke="#4C3D68" stroke-width="1" /><text x="144.0" y="335" font-family="Segoe UI, Arial, sans-serif" font-size="12" font-weight="600" fill="#A78BFA" text-anchor="middle">Token coherence</text><rect x="243" y="316" width="158" height="28" rx="14" fill="#4C3D68" stroke="#4C3D68" stroke-width="1" /><text x="322.0" y="335" font-family="Segoe UI, Arial, sans-serif" font-size="12" font-weight="600" fill="#A78BFA" text-anchor="middle">Manual editor</text><rect x="421" y="316" width="158" height="28" rx="14" fill="#4C3D68" stroke="#4C3D68" stroke-width="1" /><text x="500.0" y="335" font-family="Segoe UI, Arial, sans-serif" font-size="12" font-weight="600" fill="#A78BFA" text-anchor="middle">Animation</text><rect x="599" y="316" width="158" height="28" rx="14" fill="#4C3D68" stroke="#4C3D68" stroke-width="1" /><text x="678.0" y="335" font-family="Segoe UI, Arial, sans-serif" font-size="12" font-weight="600" fill="#A78BFA" text-anchor="middle">Material maps</text><rect x="777" y="316" width="158" height="28" rx="14" fill="#4C3D68" stroke="#4C3D68" stroke-width="1" /><text x="856.0" y="335" font-family="Segoe UI, Arial, sans-serif" font-size="12" font-weight="600" fill="#A78BFA" text-anchor="middle">Provenance</text><path d="M 500 370 V 388 H 305 V 392" stroke="#A79CB5" stroke-width="2" fill="none" /><path d="M 500 388 H 695 V 392" stroke="#A79CB5" stroke-width="2" fill="none" /><path d="M 305 392 V 392" fill="none" stroke="#A78BFA" stroke-width="2" stroke-linecap="round" /><polygon points="300,392 305,402 310,392" fill="#A78BFA" /><path d="M 695 392 V 392" fill="none" stroke="#A78BFA" stroke-width="2" stroke-linecap="round" /><polygon points="690,392 695,402 700,392" fill="#A78BFA" /><rect x="155" y="402" width="300" height="62" rx="10" fill="#193C2A" stroke="#4ADE80" stroke-width="2" /><text x="305.0" y="428.82" font-family="Segoe UI, Arial, sans-serif" font-size="12" font-weight="600" fill="#DDFBE8" text-anchor="middle"><tspan x="305.0" dy="0">Scene &amp; composition</tspan><tspan x="305.0" dy="17">verify the whole world</tspan></text><rect x="545" y="402" width="300" height="62" rx="10" fill="#193C2A" stroke="#4ADE80" stroke-width="2" /><text x="695.0" y="428.82" font-family="Segoe UI, Arial, sans-serif" font-size="12" font-weight="600" fill="#DDFBE8" text-anchor="middle"><tspan x="695.0" dy="0">Shared export pipeline</tspan><tspan x="695.0" dy="17">files · engines · live link · CLI</tspan></text></g>
</svg>
