<svg xmlns="http://www.w3.org/2000/svg" viewBox="0 0 1000 430"
     role="img" aria-labelledby="figure-title figure-desc" preserveAspectRatio="xMidYMid meet">
  <title id="figure-title">Product architecture at a glance</title>
  <desc id="figure-desc">Three specialized generators feed two shared systems, then one versioned project and one export pipeline.</desc>
  <rect width="1000" height="430" fill="#FFFFFF" />
  <g stroke-linecap="round" stroke-linejoin="round"><text x="500" y="26" font-family="Segoe UI, Arial, sans-serif" font-size="12" font-weight="700" fill="#5D6B7E" text-anchor="middle">SPECIALIZED PRODUCERS</text><rect x="55" y="44" width="280" height="62" rx="10" fill="#6D28D9" stroke="#6D28D9" stroke-width="2" /><text x="195.0" y="70.54" font-family="Segoe UI, Arial, sans-serif" font-size="14" font-weight="600" fill="#FFFFFF" text-anchor="middle"><tspan x="195.0" dy="0">Character</tspan><tspan x="195.0" dy="19">generator</tspan></text><path d="M 195 106 V 136" stroke="#64748B" stroke-width="2" fill="none" /><rect x="360" y="44" width="280" height="62" rx="10" fill="#6D28D9" stroke="#6D28D9" stroke-width="2" /><text x="500.0" y="70.54" font-family="Segoe UI, Arial, sans-serif" font-size="14" font-weight="600" fill="#FFFFFF" text-anchor="middle"><tspan x="500.0" dy="0">Environment</tspan><tspan x="500.0" dy="19">terrain</tspan></text><path d="M 500 106 V 136" stroke="#64748B" stroke-width="2" fill="none" /><rect x="665" y="44" width="280" height="62" rx="10" fill="#6D28D9" stroke="#6D28D9" stroke-width="2" /><text x="805.0" y="70.54" font-family="Segoe UI, Arial, sans-serif" font-size="14" font-weight="600" fill="#FFFFFF" text-anchor="middle"><tspan x="805.0" dy="0">Structures</tspan><tspan x="805.0" dy="19">props</tspan></text><path d="M 805 106 V 136" stroke="#64748B" stroke-width="2" fill="none" /><path d="M 195 136 H 805" stroke="#64748B" stroke-width="2" fill="none" /><text x="500" y="153" font-family="Segoe UI, Arial, sans-serif" font-size="12" font-weight="700" fill="#5D6B7E" text-anchor="middle">SHARED SYSTEMS</text><path d="M 320 136 V 162" fill="none" stroke="#6D28D9" stroke-width="2" stroke-linecap="round" /><polygon points="315,162 320,172 325,162" fill="#6D28D9" /><path d="M 680 136 V 162" fill="none" stroke="#6D28D9" stroke-width="2" stroke-linecap="round" /><polygon points="675,162 680,172 685,162" fill="#6D28D9" /><rect x="170" y="172" width="300" height="60" rx="10" fill="#FFFFFF" stroke="#DDD6FE" stroke-width="2" /><text x="320.0" y="207.04" font-family="Segoe UI, Arial, sans-serif" font-size="14" font-weight="600" fill="#1F2937" text-anchor="middle"><tspan x="320.0" dy="0">Token style system</tspan></text><rect x="530" y="172" width="300" height="60" rx="10" fill="#FFFFFF" stroke="#DDD6FE" stroke-width="2" /><text x="680.0" y="207.04" font-family="Segoe UI, Arial, sans-serif" font-size="14" font-weight="600" fill="#1F2937" text-anchor="middle"><tspan x="680.0" dy="0">Manual editor</tspan></text><path d="M 320 232 V 254 H 500" stroke="#64748B" stroke-width="2" fill="none" /><path d="M 680 232 V 254 H 500" stroke="#64748B" stroke-width="2" fill="none" /><path d="M 500 254 V 268" fill="none" stroke="#6D28D9" stroke-width="2" stroke-linecap="round" /><polygon points="495,268 500,278 505,268" fill="#6D28D9" /><rect x="350" y="278" width="300" height="62" rx="10" fill="#FFFFFF" stroke="#DDD6FE" stroke-width="2" /><text x="500.0" y="304.54" font-family="Segoe UI, Arial, sans-serif" font-size="14" font-weight="600" fill="#1F2937" text-anchor="middle"><tspan x="500.0" dy="0">One versioned project</tspan><tspan x="500.0" dy="19">assets · tokens · licenses</tspan></text><path d="M 500 340 V 360" fill="none" stroke="#6D28D9" stroke-width="2" stroke-linecap="round" /><polygon points="495,360 500,370 505,360" fill="#6D28D9" /><rect x="280" y="370" width="440" height="28" rx="14" fill="#DCFCE7" stroke="#15803D" stroke-width="1" /><text x="500.0" y="389" font-family="Segoe UI, Arial, sans-serif" font-size="12" font-weight="600" fill="#14532D" text-anchor="middle">Unified export · live link · CLI / API</text></g>
</svg>
