<svg xmlns="http://www.w3.org/2000/svg" viewBox="0 0 1000 350"
     role="img" aria-labelledby="figure-title figure-desc" preserveAspectRatio="xMidYMid meet">
  <title id="figure-title">Token resolution through ramps to palette colors</title>
  <desc id="figure-desc">The foliage.mid token resolves to the middle color of either a summer green ramp or an autumn orange ramp.</desc>
  <rect width="1000" height="350" fill="#FFFFFF" />
  <g stroke-linecap="round" stroke-linejoin="round"><text x="500" y="28" font-family="Segoe UI, Arial, sans-serif" font-size="13" font-weight="700" fill="#5D6B7E" text-anchor="middle">THE TOKEN STAYS THE SAME; THE RAMP BINDING CHANGES</text><rect x="30" y="58" width="940" height="118" rx="10" fill="#FAFAFC" stroke="#64748B" stroke-width="1" /><text x="60" y="83" font-family="Segoe UI, Arial, sans-serif" font-size="11" font-weight="700" fill="#5D6B7E" text-anchor="start">SUMMER THEME</text><rect x="60" y="103" width="170" height="28" rx="14" fill="#6D28D9" stroke="#6D28D9" stroke-width="1" /><text x="145.0" y="122" font-family="Segoe UI, Arial, sans-serif" font-size="12" font-weight="600" fill="#FFFFFF" text-anchor="middle">foliage.mid</text><path d="M 244 117 H 282" fill="none" stroke="#5D6B7E" stroke-width="2" stroke-linecap="round" /><polygon points="282,112 292,117 282,122" fill="#5D6B7E" /><text x="310" y="100" font-family="Segoe UI, Arial, sans-serif" font-size="11" font-weight="600" fill="#5D6B7E" text-anchor="start">5-step ramp</text><rect x="310" y="108" width="46" height="46" rx="7" fill="#1E3A1E" stroke="#FAFAFC" stroke-width="1" /><rect x="368" y="108" width="46" height="46" rx="7" fill="#2F5A2A" stroke="#FAFAFC" stroke-width="1" /><rect x="426" y="108" width="46" height="46" rx="7" fill="#4A8B3A" stroke="#1F2937" stroke-width="3" /><rect x="484" y="108" width="46" height="46" rx="7" fill="#6FB84E" stroke="#FAFAFC" stroke-width="1" /><rect x="542" y="108" width="46" height="46" rx="7" fill="#A5E06A" stroke="#FAFAFC" stroke-width="1" /><path d="M 606 131 H 650" fill="none" stroke="#5D6B7E" stroke-width="2" stroke-linecap="round" /><polygon points="650,126 660,131 650,136" fill="#5D6B7E" /><rect x="680" y="100" width="72" height="64" rx="10" fill="#4A8B3A" stroke="#1F2937" stroke-width="2" /><text x="790" y="120" font-family="Segoe UI, Arial, sans-serif" font-size="13" font-weight="600" fill="#1F2937" text-anchor="start"><tspan x="790" dy="0">resolved</tspan><tspan x="790" dy="18">color</tspan></text><rect x="30" y="208" width="940" height="118" rx="10" fill="#FAFAFC" stroke="#64748B" stroke-width="1" /><text x="60" y="233" font-family="Segoe UI, Arial, sans-serif" font-size="11" font-weight="700" fill="#5D6B7E" text-anchor="start">AUTUMN THEME</text><rect x="60" y="253" width="170" height="28" rx="14" fill="#6D28D9" stroke="#6D28D9" stroke-width="1" /><text x="145.0" y="272" font-family="Segoe UI, Arial, sans-serif" font-size="12" font-weight="600" fill="#FFFFFF" text-anchor="middle">foliage.mid</text><path d="M 244 267 H 282" fill="none" stroke="#5D6B7E" stroke-width="2" stroke-linecap="round" /><polygon points="282,262 292,267 282,272" fill="#5D6B7E" /><text x="310" y="250" font-family="Segoe UI, Arial, sans-serif" font-size="11" font-weight="600" fill="#5D6B7E" text-anchor="start">5-step ramp</text><rect x="310" y="258" width="46" height="46" rx="7" fill="#5A2A12" stroke="#FAFAFC" stroke-width="1" /><rect x="368" y="258" width="46" height="46" rx="7" fill="#8A4A1E" stroke="#FAFAFC" stroke-width="1" /><rect x="426" y="258" width="46" height="46" rx="7" fill="#C67A2A" stroke="#1F2937" stroke-width="3" /><rect x="484" y="258" width="46" height="46" rx="7" fill="#E0A54E" stroke="#FAFAFC" stroke-width="1" /><rect x="542" y="258" width="46" height="46" rx="7" fill="#F0D06A" stroke="#FAFAFC" stroke-width="1" /><path d="M 606 281 H 650" fill="none" stroke="#5D6B7E" stroke-width="2" stroke-linecap="round" /><polygon points="650,276 660,281 650,286" fill="#5D6B7E" /><rect x="680" y="250" width="72" height="64" rx="10" fill="#C67A2A" stroke="#1F2937" stroke-width="2" /><text x="790" y="270" font-family="Segoe UI, Arial, sans-serif" font-size="13" font-weight="600" fill="#1F2937" text-anchor="start"><tspan x="790" dy="0">resolved</tspan><tspan x="790" dy="18">color</tspan></text></g>
</svg>
