<svg xmlns="http://www.w3.org/2000/svg" viewBox="0 0 1000 670"
     role="img" aria-labelledby="figure-title figure-desc" preserveAspectRatio="xMidYMid meet">
  <title id="figure-title">ULPC coverage of indie sprite needs</title>
  <desc id="figure-desc">A categorical matrix rates fifteen needs as none, low, partial, high, or full coverage without implying false numeric precision.</desc>
  <rect width="1000" height="670" fill="#19151F" />
  <g stroke-linecap="round" stroke-linejoin="round"><text x="30" y="28" font-family="Segoe UI, Arial, sans-serif" font-size="13" font-weight="700" fill="#C9C1D4" text-anchor="start">CAPABILITY COVERAGE</text><text x="420" y="58" font-family="Segoe UI, Arial, sans-serif" font-size="11" font-weight="700" fill="#C9C1D4" text-anchor="middle">None</text><line x1="420" y1="72" x2="420" y2="630" stroke="#756A82" stroke-width="1" /><text x="545" y="58" font-family="Segoe UI, Arial, sans-serif" font-size="11" font-weight="700" fill="#C9C1D4" text-anchor="middle">Low</text><line x1="545" y1="72" x2="545" y2="630" stroke="#756A82" stroke-width="1" /><text x="670" y="58" font-family="Segoe UI, Arial, sans-serif" font-size="11" font-weight="700" fill="#C9C1D4" text-anchor="middle">Partial</text><line x1="670" y1="72" x2="670" y2="630" stroke="#756A82" stroke-width="1" /><text x="795" y="58" font-family="Segoe UI, Arial, sans-serif" font-size="11" font-weight="700" fill="#C9C1D4" text-anchor="middle">High</text><line x1="795" y1="72" x2="795" y2="630" stroke="#756A82" stroke-width="1" /><text x="920" y="58" font-family="Segoe UI, Arial, sans-serif" font-size="11" font-weight="700" fill="#C9C1D4" text-anchor="middle">Full</text><line x1="920" y1="72" x2="920" y2="630" stroke="#756A82" stroke-width="1" /><rect x="20" y="74" width="950" height="32" rx="5" fill="#30273A" /><text x="35" y="96" font-family="Segoe UI, Arial, sans-serif" font-size="12" font-weight="500" fill="#F8F7FC" text-anchor="start">Modular characters</text><circle cx="920" cy="92" r="9" fill="#4ADE80" /><circle cx="920" cy="92" r="14" fill="none" stroke="#4ADE80" stroke-width="2" opacity="0.25" /><text x="35" y="132" font-family="Segoe UI, Arial, sans-serif" font-size="12" font-weight="500" fill="#F8F7FC" text-anchor="start">Real-time recolor</text><circle cx="920" cy="128" r="9" fill="#4ADE80" /><circle cx="920" cy="128" r="14" fill="none" stroke="#4ADE80" stroke-width="2" opacity="0.25" /><rect x="20" y="146" width="950" height="32" rx="5" fill="#30273A" /><text x="35" y="168" font-family="Segoe UI, Arial, sans-serif" font-size="12" font-weight="500" fill="#F8F7FC" text-anchor="start">License / credits</text><circle cx="920" cy="164" r="9" fill="#4ADE80" /><circle cx="920" cy="164" r="14" fill="none" stroke="#4ADE80" stroke-width="2" opacity="0.25" /><text x="35" y="204" font-family="Segoe UI, Arial, sans-serif" font-size="12" font-weight="500" fill="#F8F7FC" text-anchor="start">Animation preview</text><circle cx="795" cy="200" r="9" fill="#4ADE80" /><circle cx="795" cy="200" r="14" fill="none" stroke="#4ADE80" stroke-width="2" opacity="0.25" /><rect x="20" y="218" width="950" height="32" rx="5" fill="#30273A" /><text x="35" y="240" font-family="Segoe UI, Arial, sans-serif" font-size="12" font-weight="500" fill="#F8F7FC" text-anchor="start">Reproducible build</text><circle cx="795" cy="236" r="9" fill="#4ADE80" /><circle cx="795" cy="236" r="14" fill="none" stroke="#4ADE80" stroke-width="2" opacity="0.25" /><text x="35" y="276" font-family="Segoe UI, Arial, sans-serif" font-size="12" font-weight="500" fill="#F8F7FC" text-anchor="start">Export to files</text><circle cx="670" cy="272" r="9" fill="#FBBF24" /><circle cx="670" cy="272" r="14" fill="none" stroke="#FBBF24" stroke-width="2" opacity="0.25" /><rect x="20" y="290" width="950" height="32" rx="5" fill="#30273A" /><text x="35" y="312" font-family="Segoe UI, Arial, sans-serif" font-size="12" font-weight="500" fill="#F8F7FC" text-anchor="start">Sourcing breadth</text><circle cx="545" cy="308" r="9" fill="#FBBF24" /><circle cx="545" cy="308" r="14" fill="none" stroke="#FBBF24" stroke-width="2" opacity="0.25" /><text x="35" y="348" font-family="Segoe UI, Arial, sans-serif" font-size="12" font-weight="500" fill="#F8F7FC" text-anchor="start">Style flexibility</text><circle cx="545" cy="344" r="9" fill="#FBBF24" /><circle cx="545" cy="344" r="14" fill="none" stroke="#FBBF24" stroke-width="2" opacity="0.25" /><rect x="20" y="362" width="950" height="32" rx="5" fill="#30273A" /><text x="35" y="384" font-family="Segoe UI, Arial, sans-serif" font-size="12" font-weight="500" fill="#F8F7FC" text-anchor="start">Animation authoring</text><circle cx="420" cy="380" r="9" fill="#F87171" /><circle cx="420" cy="380" r="14" fill="none" stroke="#F87171" stroke-width="2" opacity="0.25" /><text x="35" y="420" font-family="Segoe UI, Arial, sans-serif" font-size="12" font-weight="500" fill="#F8F7FC" text-anchor="start">Non-character assets</text><circle cx="420" cy="416" r="9" fill="#F87171" /><circle cx="420" cy="416" r="14" fill="none" stroke="#F87171" stroke-width="2" opacity="0.25" /><rect x="20" y="434" width="950" height="32" rx="5" fill="#30273A" /><text x="35" y="456" font-family="Segoe UI, Arial, sans-serif" font-size="12" font-weight="500" fill="#F8F7FC" text-anchor="start">Engine-native import</text><circle cx="420" cy="452" r="9" fill="#F87171" /><circle cx="420" cy="452" r="14" fill="none" stroke="#F87171" stroke-width="2" opacity="0.25" /><text x="35" y="492" font-family="Segoe UI, Arial, sans-serif" font-size="12" font-weight="500" fill="#F8F7FC" text-anchor="start">Live link to engine</text><circle cx="420" cy="488" r="9" fill="#F87171" /><circle cx="420" cy="488" r="14" fill="none" stroke="#F87171" stroke-width="2" opacity="0.25" /><rect x="20" y="506" width="950" height="32" rx="5" fill="#30273A" /><text x="35" y="528" font-family="Segoe UI, Arial, sans-serif" font-size="12" font-weight="500" fill="#F8F7FC" text-anchor="start">CLI / automation</text><circle cx="420" cy="524" r="9" fill="#F87171" /><circle cx="420" cy="524" r="14" fill="none" stroke="#F87171" stroke-width="2" opacity="0.25" /><text x="35" y="564" font-family="Segoe UI, Arial, sans-serif" font-size="12" font-weight="500" fill="#F8F7FC" text-anchor="start">Persistent project</text><circle cx="420" cy="560" r="9" fill="#F87171" /><circle cx="420" cy="560" r="14" fill="none" stroke="#F87171" stroke-width="2" opacity="0.25" /><rect x="20" y="578" width="950" height="32" rx="5" fill="#30273A" /><text x="35" y="600" font-family="Segoe UI, Arial, sans-serif" font-size="12" font-weight="500" fill="#F8F7FC" text-anchor="start">Collaboration</text><circle cx="420" cy="596" r="9" fill="#F87171" /><circle cx="420" cy="596" r="14" fill="none" stroke="#F87171" stroke-width="2" opacity="0.25" /><text x="500" y="654" font-family="Segoe UI, Arial, sans-serif" font-size="11" font-weight="400" fill="#C9C1D4" text-anchor="middle">Qualitative categories · positions are not percentages</text></g>
</svg>
